REM DIRINDEX 1\2,1\3,1\4,1\5\6,1\5\7,1\8
REM DIRNAME folder01,folder02,folder03,folder04,folder05,folder06,folder07,folder08
TITLE ""
FILE "118 Åy118ÅzUnit7 (1333 perimeter_1344 sprout).mp3" MP3
  TRACK 01 AUDIO
    TITLE "0:"
    INDEX 01 00:00:00
  TRACK 02 AUDIO
    TITLE "2:cjc115_4614"
    INDEX 01 00:00:07
  TRACK 03 AUDIO
    TITLE "0:"
    INDEX 01 00:01:22
  TRACK 04 AUDIO
    TITLE "3:cjc115_4615"
    INDEX 01 00:01:54
  TRACK 05 AUDIO
    TITLE "0:"
    INDEX 01 00:03:70
  TRACK 06 AUDIO
    TITLE "4:cjc115_4616"
    INDEX 01 00:04:03
  TRACK 07 AUDIO
    TITLE "0:"
    INDEX 01 00:08:01
  TRACK 08 AUDIO
    TITLE "2:cjc115_4617"
    INDEX 01 00:09:10
  TRACK 09 AUDIO
    TITLE "0:"
    INDEX 01 00:10:43
  TRACK 10 AUDIO
    TITLE "3:cjc115_4618"
    INDEX 01 00:10:45
  TRACK 11 AUDIO
    TITLE "0:"
    INDEX 01 00:11:70
  TRACK 12 AUDIO
    TITLE "4:cjc115_4619"
    INDEX 01 00:12:03
  TRACK 13 AUDIO
    TITLE "0:"
    INDEX 01 00:15:74
  TRACK 14 AUDIO
    TITLE "2:cjc115_4620"
    INDEX 01 00:17:04
  TRACK 15 AUDIO
    TITLE "0:"
    INDEX 01 00:18:29
  TRACK 16 AUDIO
    TITLE "3:cjc115_4621"
    INDEX 01 00:18:37
  TRACK 17 AUDIO
    TITLE "0:"
    INDEX 01 00:20:49
  TRACK 18 AUDIO
    TITLE "4:cjc115_4622"
    INDEX 01 00:20:55
  TRACK 19 AUDIO
    TITLE "0:"
    INDEX 01 00:25:31
  TRACK 20 AUDIO
    TITLE "2:cjc115_4623"
    INDEX 01 00:26:40
  TRACK 21 AUDIO
    TITLE "0:"
    INDEX 01 00:27:71
  TRACK 22 AUDIO
    TITLE "3:cjc115_4624"
    INDEX 01 00:28:02
  TRACK 23 AUDIO
    TITLE "0:"
    INDEX 01 00:30:38
  TRACK 24 AUDIO
    TITLE "4:cjc115_4625"
    INDEX 01 00:30:44
  TRACK 25 AUDIO
    TITLE "0:"
    INDEX 01 00:34:00
  TRACK 26 AUDIO
    TITLE "2:cjc115_4626"
    INDEX 01 00:35:04
  TRACK 27 AUDIO
    TITLE "0:"
    INDEX 01 00:36:40
  TRACK 28 AUDIO
    TITLE "3:cjc115_4627"
    INDEX 01 00:36:48
  TRACK 29 AUDIO
    TITLE "0:"
    INDEX 01 00:39:19
  TRACK 30 AUDIO
    TITLE "4:cjc115_4628"
    INDEX 01 00:39:25
  TRACK 31 AUDIO
    TITLE "0:"
    INDEX 01 00:43:17
  TRACK 32 AUDIO
    TITLE "2:cjc115_4629"
    INDEX 01 00:44:22
  TRACK 33 AUDIO
    TITLE "0:"
    INDEX 01 00:45:49
  TRACK 34 AUDIO
    TITLE "3:cjc115_4630"
    INDEX 01 00:45:53
  TRACK 35 AUDIO
    TITLE "0:"
    INDEX 01 00:49:02
  TRACK 36 AUDIO
    TITLE "4:cjc115_4631"
    INDEX 01 00:49:08
  TRACK 37 AUDIO
    TITLE "0:"
    INDEX 01 00:52:14
  TRACK 38 AUDIO
    TITLE "2:cjc115_4632"
    INDEX 01 00:53:21
  TRACK 39 AUDIO
    TITLE "0:"
    INDEX 01 00:54:64
  TRACK 40 AUDIO
    TITLE "3:cjc115_4633"
    INDEX 01 00:54:72
  TRACK 41 AUDIO
    TITLE "0:"
    INDEX 01 00:57:05
  TRACK 42 AUDIO
    TITLE "4:cjc115_4634"
    INDEX 01 00:57:13
  TRACK 43 AUDIO
    TITLE "0:"
    INDEX 01 01:01:01
  TRACK 44 AUDIO
    TITLE "2:cjc115_4635"
    INDEX 01 01:02:06
  TRACK 45 AUDIO
    TITLE "0:"
    INDEX 01 01:03:31
  TRACK 46 AUDIO
    TITLE "3:cjc115_4636"
    INDEX 01 01:03:35
  TRACK 47 AUDIO
    TITLE "0:"
    INDEX 01 01:05:64
  TRACK 48 AUDIO
    TITLE "4:cjc115_4637"
    INDEX 01 01:05:68
  TRACK 49 AUDIO
    TITLE "0:"
    INDEX 01 01:09:20
  TRACK 50 AUDIO
    TITLE "2:cjc115_4638"
    INDEX 01 01:10:30
  TRACK 51 AUDIO
    TITLE "0:"
    INDEX 01 01:11:37
  TRACK 52 AUDIO
    TITLE "3:cjc115_4639"
    INDEX 01 01:11:45
  TRACK 53 AUDIO
    TITLE "0:"
    INDEX 01 01:13:10
  TRACK 54 AUDIO
    TITLE "4:cjc115_4640"
    INDEX 01 01:13:14
  TRACK 55 AUDIO
    TITLE "0:"
    INDEX 01 01:16:46
  TRACK 56 AUDIO
    TITLE "2:cjc115_4641"
    INDEX 01 01:17:55
  TRACK 57 AUDIO
    TITLE "0:"
    INDEX 01 01:19:11
  TRACK 58 AUDIO
    TITLE "3:cjc115_4642"
    INDEX 01 01:19:19
  TRACK 59 AUDIO
    TITLE "0:"
    INDEX 01 01:21:37
  TRACK 60 AUDIO
    TITLE "4:cjc115_4643"
    INDEX 01 01:21:47
  TRACK 61 AUDIO
    TITLE "0:"
    INDEX 01 01:25:08
  TRACK 62 AUDIO
    TITLE "2:cjc115_4644"
    INDEX 01 01:26:15
  TRACK 63 AUDIO
    TITLE "0:"
    INDEX 01 01:27:20
  TRACK 64 AUDIO
    TITLE "3:cjc115_4645"
    INDEX 01 01:27:28
  TRACK 65 AUDIO
    TITLE "0:"
    INDEX 01 01:28:41
  TRACK 66 AUDIO
    TITLE "4:cjc115_4646"
    INDEX 01 01:28:51
  TRACK 67 AUDIO
    TITLE "0:"
    INDEX 01 01:32:43
  TRACK 68 AUDIO
    TITLE "2:cjc115_4647"
    INDEX 01 01:33:50
  TRACK 69 AUDIO
    TITLE "0:"
    INDEX 01 01:34:67
  TRACK 70 AUDIO
    TITLE "3:cjc115_4648"
    INDEX 01 01:34:69
  TRACK 71 AUDIO
    TITLE "0:"
    INDEX 01 01:36:19
  TRACK 72 AUDIO
    TITLE "4:cjc115_4649"
    INDEX 01 01:36:25
  TRACK 73 AUDIO
    TITLE "0:"
    INDEX 01 01:40:01
